<svg width="179" height="44" viewBox="0 0 179 44" fill="none" xmlns="http://www.w3.org/2000/svg">
<path d="M6.9528 35.1173H1L10.0703 8.99249H17.2291L26.2866 35.1173H20.3338L13.7523 14.9624H13.5471L6.9528 35.1173ZM6.58075 24.8485H20.6417V29.1601H6.58075V24.8485ZM29.4523 35.1173V15.5237H34.9175V35.1173H29.4523ZM32.1977 12.998C31.3852 12.998 30.6881 12.7301 30.1065 12.1943C29.5335 11.65 29.247 10.9994 29.247 10.2426C29.247 9.49423 29.5335 8.85217 30.1065 8.3164C30.6881 7.77214 31.3852 7.5 32.1977 7.5C33.0102 7.5 33.703 7.77214 34.2761 8.3164C34.8576 8.85217 35.1485 9.49423 35.1485 10.2426C35.1485 10.9994 34.8576 11.65 34.2761 12.1943C33.703 12.7301 33.0102 12.998 32.1977 12.998ZM48.1991 35.5C46.1805 35.5 44.4443 35.0748 42.9904 34.2244C41.5449 33.3655 40.4331 32.1749 39.6547 30.6527C38.885 29.1304 38.5001 27.3785 38.5001 25.397C38.5001 23.3901 38.8892 21.6297 39.6676 20.1159C40.4545 18.5937 41.5706 17.4074 43.016 16.5569C44.4615 15.6981 46.1806 15.2686 48.1734 15.2686C49.8925 15.2686 51.3979 15.5789 52.6893 16.1998C53.9809 16.8206 55.0029 17.6922 55.7555 18.8148C56.5082 19.9373 56.923 21.2556 57 22.7693H51.8426C51.6972 21.7913 51.3123 21.0046 50.6879 20.4093C50.0722 19.8055 49.2639 19.5037 48.2632 19.5037C47.4165 19.5037 46.6767 19.7333 46.0438 20.1925C45.4194 20.6432 44.9319 21.3023 44.5812 22.1697C44.2306 23.0372 44.0552 24.0874 44.0552 25.3205C44.0552 26.5707 44.2263 27.6337 44.5684 28.5095C44.919 29.3855 45.4108 30.0531 46.0438 30.5123C46.6767 30.9716 47.4165 31.2012 48.2632 31.2012C48.8876 31.2012 49.4478 31.0736 49.9438 30.8185C50.4485 30.5634 50.8633 30.1934 51.1883 29.7086C51.5219 29.2154 51.74 28.6244 51.8426 27.9356H57C56.9145 29.4323 56.5039 30.7505 55.7684 31.89C55.0414 33.021 54.0364 33.9055 52.7535 34.5433C51.4705 35.1811 49.9524 35.5 48.1991 35.5Z" fill="#F2F2F2"/>
<path d="M104.864 9.5V35.1247H100.09L88.718 18.9966H88.5266V35.1247H83V9.5H87.8501L99.1332 25.6155H99.363V9.5H104.864ZM118.263 35.5C116.246 35.5 114.51 35.0996 113.055 34.2988C111.609 33.4897 110.494 32.347 109.711 30.8706C108.928 29.3858 108.536 27.6299 108.536 25.603C108.536 23.6261 108.928 21.8911 109.711 20.398C110.494 18.9049 111.596 17.7412 113.017 16.9072C114.446 16.073 116.122 15.656 118.045 15.656C119.339 15.656 120.543 15.8603 121.657 16.269C122.781 16.6694 123.759 17.2742 124.594 18.0833C125.435 18.8924 126.091 19.91 126.559 21.1362C127.027 22.354 127.261 23.7804 127.261 25.4153V26.8792H110.707V23.5761H122.143C122.143 22.8086 121.973 22.1288 121.632 21.5366C121.292 20.9444 120.82 20.4814 120.216 20.1477C119.62 19.8057 118.927 19.6348 118.135 19.6348C117.309 19.6348 116.578 19.8225 115.94 20.1978C115.31 20.5648 114.816 21.0611 114.459 21.6867C114.102 22.304 113.919 22.9922 113.91 23.7513V26.8918C113.91 27.8427 114.089 28.6642 114.446 29.3566C114.812 30.0489 115.327 30.5828 115.99 30.9582C116.654 31.3335 117.441 31.5212 118.352 31.5212C118.956 31.5212 119.509 31.4378 120.011 31.271C120.513 31.1041 120.943 30.8539 121.3 30.5203C121.657 30.1865 121.93 29.7778 122.118 29.294L127.147 29.6194C126.891 30.8038 126.368 31.8381 125.576 32.7224C124.793 33.5982 123.781 34.2822 122.538 34.7743C121.305 35.2582 119.879 35.5 118.263 35.5ZM134.537 35.1247L129.201 15.9061H134.702L137.74 28.8186H137.918L141.084 15.9061H146.483L149.699 28.7435H149.865L152.852 15.9061H158.341L153.018 35.1247H147.261L143.892 23.0381H143.649L140.28 35.1247H134.537ZM177.553 21.3865L172.575 21.6867C172.49 21.2696 172.307 20.8943 172.027 20.5606C171.745 20.2187 171.376 19.9476 170.915 19.7474C170.465 19.5388 169.924 19.4346 169.295 19.4346C168.452 19.4346 167.741 19.6097 167.163 19.9601C166.584 20.302 166.296 20.7609 166.296 21.3364C166.296 21.7952 166.482 22.1831 166.857 22.5001C167.231 22.817 167.874 23.0714 168.784 23.2633L172.332 23.9639C174.239 24.3476 175.66 24.9649 176.595 25.8157C177.532 26.6666 178 27.7843 178 29.169C178 30.4285 177.621 31.5337 176.864 32.4847C176.115 33.4355 175.086 34.1779 173.775 34.7117C172.473 35.2373 170.971 35.5 169.269 35.5C166.674 35.5 164.606 34.9703 163.066 33.9109C161.534 32.8433 160.637 31.3919 160.373 29.5568L165.721 29.2815C165.882 30.0572 166.274 30.6496 166.895 31.0583C167.517 31.4587 168.312 31.6588 169.282 31.6588C170.235 31.6588 171.001 31.4795 171.579 31.1208C172.166 30.7538 172.465 30.2825 172.473 29.707C172.465 29.2232 172.256 28.8269 171.848 28.5183C171.44 28.2013 170.81 27.9595 169.959 27.7926L166.563 27.1295C164.648 26.7541 163.224 26.1035 162.287 25.1775C161.36 24.2517 160.896 23.0714 160.896 21.6367C160.896 20.4022 161.237 19.3386 161.918 18.4461C162.607 17.5536 163.572 16.8655 164.815 16.3816C166.065 15.8978 167.529 15.656 169.205 15.656C171.681 15.656 173.63 16.1689 175.051 17.1949C176.48 18.2209 177.314 19.618 177.553 21.3865Z" fill="#F2F2F2"/>
<mask id="mask0_201_21" style="mask-type:luminance" maskUnits="userSpaceOnUse" x="59" y="16" width="21" height="20">
<path d="M79.8115 16H59.8115V36H79.8115V16Z" fill="white"/>
</mask>
<g mask="url(#mask0_201_21)">
<path d="M66.5228 27.6057C66.6155 28.7698 67.5356 29.6765 69.1854 29.7838V30.6429H69.9174V29.7777C71.6258 29.6582 72.624 28.7454 72.624 27.4202C72.624 26.2159 71.8601 25.5947 70.4946 25.2726L69.9174 25.1359V22.7968C70.6496 22.8798 71.1157 23.28 71.228 23.834H72.5117C72.419 22.7126 71.4574 21.8352 69.9174 21.74V20.881H69.1854V21.7583C67.7271 21.9011 66.7327 22.7784 66.7327 24.0194C66.7327 25.1176 67.4721 25.8156 68.7009 26.1024L69.1854 26.222V28.7039C68.4349 28.5905 67.9382 28.1792 67.826 27.6057H66.5228ZM69.1792 24.9627C68.4593 24.7955 68.0688 24.4551 68.0688 23.9426C68.0688 23.369 68.4898 22.9395 69.1854 22.8138V24.9615L69.1792 24.9627ZM70.0237 26.4185C70.8986 26.621 71.3025 26.9492 71.3025 27.5288C71.3025 28.1902 70.7997 28.6442 69.9174 28.7272V26.394L70.0237 26.4185Z" fill="#F2F2F2"/>
<mask id="mask1_201_21" style="mask-type:luminance" maskUnits="userSpaceOnUse" x="66" y="20" width="7" height="11">
<path d="M66.5228 27.6057C66.6155 28.7698 67.5356 29.6765 69.1854 29.7838V30.6429H69.9174V29.7777C71.6258 29.6582 72.624 28.7454 72.624 27.4202C72.624 26.2159 71.8601 25.5947 70.4946 25.2726L69.9174 25.1359V22.7968C70.6496 22.8798 71.1157 23.28 71.228 23.834H72.5117C72.419 22.7126 71.4574 21.8352 69.9174 21.74V20.881H69.1854V21.7583C67.7271 21.9011 66.7327 22.7784 66.7327 24.0194C66.7327 25.1176 67.4721 25.8156 68.7009 26.1024L69.1854 26.222V28.7039C68.4349 28.5905 67.9382 28.1792 67.826 27.6057H66.5228ZM69.1792 24.9627C68.4593 24.7955 68.0688 24.4551 68.0688 23.9426C68.0688 23.369 68.4898 22.9395 69.1854 22.8138V24.9615L69.1792 24.9627ZM70.0237 26.4185C70.8986 26.621 71.3025 26.9492 71.3025 27.5288C71.3025 28.1902 70.7997 28.6442 69.9174 28.7272V26.394L70.0237 26.4185Z" fill="white"/>
</mask>
<g mask="url(#mask1_201_21)">
<path d="M66.5227 27.6057V18.7312H56.9132L57.6763 28.3105L66.5227 27.6057ZM69.1853 29.7838H78.0598V21.4682L69.7617 20.9281L69.1853 29.7838ZM69.1853 30.6429H60.3109V39.5174H69.1853V30.6429ZM69.9174 30.6429V39.5174H78.7919V30.6429H69.9174ZM69.9174 29.7777L69.2978 20.9249L61.0429 21.5028V29.7777H69.9174ZM70.4946 25.2726L68.4498 33.9083L68.4568 33.9099L70.4946 25.2726ZM69.9174 25.1359H61.0429V32.1545L67.8726 33.7716L69.9174 25.1359ZM69.9174 22.7968L70.9168 13.9788L61.0429 12.8597V22.7968H69.9174ZM71.228 23.834L62.5303 25.5965L63.9715 32.7084H71.228V23.834ZM72.5117 23.834V32.7084H82.1503L81.356 23.1025L72.5117 23.834ZM69.9174 21.74H61.0429V30.0829L69.37 30.5976L69.9174 21.74ZM69.9174 20.881H78.7919V12.0065H69.9174V20.881ZM69.1853 20.881V12.0065H60.3109V20.881H69.1853ZM69.1853 21.7583L70.0501 30.5905L78.0598 29.8064V21.7583H69.1853ZM68.7009 26.1024L70.8277 17.4865L70.7728 17.473L70.7177 17.4602L68.7009 26.1024ZM69.1853 26.222H78.0598V19.2718L71.3121 17.6061L69.1853 26.222ZM69.1853 28.7039L67.8584 37.4786L78.0598 39.0213V28.7039H69.1853ZM67.826 27.6057L76.5352 25.9009L75.1317 18.7312H67.826V27.6057ZM69.1792 24.9627L67.1719 33.6071L69.0394 34.0408L70.9195 33.6648L69.1792 24.9627ZM69.1853 22.8138H78.0598V12.192L67.6072 14.0808L69.1853 22.8138ZM69.1853 24.9615L70.9255 33.6636L78.0598 32.2369V24.9615H69.1853ZM70.0236 26.4185L72.0253 17.7726L72.0186 17.7711L72.0119 17.7696L70.0236 26.4185ZM69.9174 28.7272H61.0429V38.4754L70.7484 37.5626L69.9174 28.7272ZM69.9174 26.394L71.9057 17.7452L61.0429 15.2479V26.394H69.9174ZM57.6763 28.3105C57.9018 31.1408 59.1979 33.8515 61.4796 35.8161C63.6894 37.7188 66.2995 38.4892 68.6089 38.6396L69.7617 20.9281C70.4214 20.9711 71.7466 21.2345 73.0606 22.366C74.4467 23.5595 75.2364 25.2347 75.3692 26.901L57.6763 28.3105ZM60.3109 29.7838V30.6429H78.0598V29.7838H60.3109ZM69.1853 39.5174H69.9174V21.7684H69.1853V39.5174ZM78.7919 30.6429V29.7777H61.0429V30.6429H78.7919ZM70.5371 38.6305C72.7631 38.4747 75.4801 37.7382 77.7842 35.7043C80.251 33.5267 81.4984 30.4985 81.4984 27.4202H63.7495C63.7495 25.6672 64.4978 23.7579 66.0384 22.398C67.4164 21.1816 68.7801 20.9612 69.2978 20.9249L70.5371 38.6305ZM81.4984 27.4202C81.4984 24.7083 80.5311 21.828 78.2071 19.604C76.2087 17.6916 73.916 16.9618 72.5323 16.6353L68.4568 33.9099C68.4386 33.9057 67.2106 33.6474 65.9355 32.4272C65.2405 31.762 64.6405 30.9113 64.2423 29.9147C63.8538 28.9425 63.7495 28.0642 63.7495 27.4202H81.4984ZM72.5394 16.637L71.9623 16.5003L67.8726 33.7716L68.4498 33.9083L72.5394 16.637ZM78.7919 25.1359V22.7968H61.0429V25.1359H78.7919ZM68.918 31.6147C67.9229 31.5019 66.5431 31.1058 65.2233 30.0379C63.8488 28.9259 62.8859 27.3514 62.5303 25.5965L79.9257 22.0714C78.8776 16.8994 74.5404 14.3894 70.9168 13.9788L68.918 31.6147ZM71.228 32.7084H72.5117V14.9595H71.228V32.7084ZM81.356 23.1025C80.8028 16.4144 75.1175 13.17 70.4649 12.8825L69.37 30.5976C68.6002 30.55 67.3216 30.2607 66.0668 29.2121C64.753 28.1142 63.8235 26.4528 63.6674 24.5654L81.356 23.1025ZM78.7919 21.74V20.881H61.0429V21.74H78.7919ZM69.9174 12.0065H69.1853V29.7554H69.9174V12.0065ZM60.3109 20.881V21.7583H78.0598V20.881H60.3109ZM68.3205 12.9261C63.916 13.3573 57.8582 16.7672 57.8582 24.0194H75.6071C75.6071 25.9617 74.7545 27.7938 73.3866 29.0392C72.1339 30.1797 70.8266 30.5146 70.0501 30.5905L68.3205 12.9261ZM57.8582 24.0194C57.8582 26.7492 58.856 29.4593 60.8976 31.5562C62.7708 33.48 64.989 34.349 66.6841 34.7447L70.7177 17.4602C71.184 17.569 72.418 17.9457 73.6143 19.1743C74.9789 20.5759 75.6071 22.3879 75.6071 24.0194H57.8582ZM66.574 34.7182L67.0585 34.8379L71.3121 17.6061L70.8277 17.4865L66.574 34.7182ZM60.3109 26.222V28.7039H78.0598V26.222H60.3109ZM70.5122 19.9292C71.3854 20.0613 72.6397 20.4453 73.8657 21.4424C75.1578 22.4932 76.1716 24.0436 76.5352 25.9009L59.1167 29.3105C60.1614 34.6467 64.6254 36.9897 67.8584 37.4786L70.5122 19.9292ZM67.826 18.7312H66.5227V36.4802H67.826V18.7312ZM71.1864 16.3182C71.6322 16.4218 72.9656 16.7845 74.3143 18.0071C75.9364 19.4776 76.9432 21.6327 76.9432 23.9426H59.1943C59.1943 26.7649 60.3963 29.3465 62.3937 31.1572C64.1177 32.72 66.0062 33.3365 67.1719 33.6071L71.1864 16.3182ZM76.9432 23.9426C76.9432 25.9815 76.1349 27.972 74.6833 29.4432C73.3267 30.8182 71.8053 31.3586 70.7634 31.5468L67.6072 14.0808C64.0028 14.7321 59.1943 17.8661 59.1943 23.9426H76.9432ZM60.3109 22.8138V24.9615H78.0598V22.8138H60.3109ZM67.4451 16.2593L67.4389 16.2605L70.9195 33.6648L70.9255 33.6636L67.4451 16.2593ZM68.0219 35.0642C67.957 35.0492 66.6257 34.7757 65.2241 33.5775C64.4304 32.8989 63.6599 31.9619 63.122 30.7568C62.5906 29.5666 62.428 28.4332 62.428 27.5288H80.1769C80.1769 24.8008 79.0563 22.0519 76.7581 20.087C74.9358 18.5291 72.9651 17.9902 72.0253 17.7726L68.0219 35.0642ZM62.428 27.5288C62.428 25.3944 63.3374 23.2062 65.096 21.667C66.6608 20.2973 68.2776 19.9677 69.0865 19.8917L70.7484 37.5626C72.4395 37.4035 74.7487 36.8055 76.7855 35.0228C79.016 33.0706 80.1769 30.3247 80.1769 27.5288H62.428ZM78.7919 28.7272V26.394H61.0429V28.7272H78.7919ZM67.9292 35.0429L68.0353 35.0673L72.0119 17.7696L71.9057 17.7452L67.9292 35.0429Z" fill="#F2F2F2"/>
</g>
<path d="M69.5734 34.3036C67.308 34.3036 65.1353 33.4036 63.5335 31.8018C61.9317 30.1999 61.0317 28.0273 61.0317 25.7619C61.0317 23.4965 61.9317 21.3239 63.5335 19.722C65.1353 18.1202 67.308 17.2202 69.5734 17.2202C71.8387 17.2202 74.0114 18.1202 75.6132 19.722C77.2151 21.3239 78.115 23.4965 78.115 25.7619C78.115 28.0273 77.2151 30.1999 75.6132 31.8018C74.0114 33.4036 71.8387 34.3036 69.5734 34.3036ZM69.5734 35.5238C72.1624 35.5238 74.6454 34.4953 76.4761 32.6646C78.3068 30.8339 79.3353 28.3509 79.3353 25.7619C79.3353 23.1729 78.3068 20.6899 76.4761 18.8592C74.6454 17.0285 72.1624 16 69.5734 16C66.9843 16 64.5013 17.0285 62.6706 18.8592C60.8399 20.6899 59.8115 23.1729 59.8115 25.7619C59.8115 28.3509 60.8399 30.8339 62.6706 32.6646C64.5013 34.4953 66.9843 35.5238 69.5734 35.5238Z" fill="#F2F2F2"/>
<path d="M69.5733 31.4702C68.0594 31.4702 66.6075 30.8688 65.5369 29.7983C64.4664 28.7277 63.865 27.2758 63.865 25.7619C63.865 24.248 64.4664 22.7961 65.5369 21.7255C66.6075 20.655 68.0594 20.0536 69.5733 20.0536C71.0872 20.0536 72.5392 20.655 73.6097 21.7255C74.6802 22.7961 75.2816 24.248 75.2816 25.7619C75.2816 27.2758 74.6802 28.7277 73.6097 29.7983C72.5392 30.8688 71.0872 31.4702 69.5733 31.4702ZM69.5733 32.9169C70.5129 32.9169 71.4433 32.7319 72.3114 32.3723C73.1795 32.0127 73.9683 31.4857 74.6326 30.8212C75.2971 30.1569 75.8241 29.3681 76.1837 28.5C76.5433 27.6319 76.7283 26.7015 76.7283 25.7619C76.7283 24.8223 76.5433 23.8919 76.1837 23.0238C75.8241 22.1557 75.2971 21.3669 74.6326 20.7026C73.9683 20.0381 73.1795 19.5111 72.3114 19.1515C71.4433 18.7919 70.5129 18.6069 69.5733 18.6069C67.6757 18.6069 65.8558 19.3607 64.514 20.7026C63.1721 22.0444 62.4183 23.8643 62.4183 25.7619C62.4183 27.6595 63.1721 29.4794 64.514 30.8212C65.8558 32.1631 67.6757 32.9169 69.5733 32.9169Z" fill="#F2F2F2" stroke="#F2F2F2"/>
</g>
</svg>
