<svg width="179" height="43" viewBox="0 0 179 43" fill="none" xmlns="http://www.w3.org/2000/svg">
<path d="M6.78835 35H0.856534L9.89489 8.81818H17.0284L26.054 35H20.1222L13.5639 14.8011H13.3594L6.78835 35ZM6.41761 24.7088H20.429V29.0298H6.41761V24.7088ZM29.2085 35V15.3636H34.6545V35H29.2085ZM31.9442 12.8324C31.1346 12.8324 30.44 12.5639 29.8604 12.027C29.2894 11.4815 29.0039 10.8295 29.0039 10.071C29.0039 9.32102 29.2894 8.67756 29.8604 8.14062C30.44 7.59517 31.1346 7.32244 31.9442 7.32244C32.7539 7.32244 33.4442 7.59517 34.0153 8.14062C34.5948 8.67756 34.8846 9.32102 34.8846 10.071C34.8846 10.8295 34.5948 11.4815 34.0153 12.027C33.4442 12.5639 32.7539 12.8324 31.9442 12.8324ZM47.8892 35.3835C45.8778 35.3835 44.1477 34.9574 42.6989 34.1051C41.2585 33.2443 40.1506 32.0511 39.375 30.5256C38.608 29 38.2244 27.2443 38.2244 25.2585C38.2244 23.2472 38.6122 21.483 39.3878 19.9659C40.1719 18.4403 41.2841 17.2514 42.7244 16.3991C44.1648 15.5384 45.8778 15.108 47.8636 15.108C49.5767 15.108 51.0767 15.419 52.3636 16.0412C53.6506 16.6634 54.669 17.5369 55.419 18.6619C56.169 19.7869 56.5824 21.108 56.6591 22.625H51.5199C51.375 21.6449 50.9915 20.8565 50.3693 20.2599C49.7557 19.6548 48.9503 19.3523 47.9531 19.3523C47.1094 19.3523 46.3722 19.5824 45.7415 20.0426C45.1193 20.4943 44.6335 21.1548 44.2841 22.0241C43.9347 22.8935 43.7599 23.946 43.7599 25.1818C43.7599 26.4347 43.9304 27.5 44.2713 28.3778C44.6207 29.2557 45.1108 29.9247 45.7415 30.3849C46.3722 30.8452 47.1094 31.0753 47.9531 31.0753C48.5753 31.0753 49.1335 30.9474 49.6278 30.6918C50.1307 30.4361 50.544 30.0653 50.8679 29.5795C51.2003 29.0852 51.4176 28.4929 51.5199 27.8026H56.6591C56.5739 29.3026 56.1648 30.6236 55.4318 31.7656C54.7074 32.8991 53.706 33.7855 52.4276 34.4247C51.1491 35.0639 49.6364 35.3835 47.8892 35.3835Z" fill="#075FC5"/>
<path d="M104.175 8.81818V35H99.3935L88.0028 18.5213H87.8111V35H82.2756V8.81818H87.1335L98.4347 25.2841H98.6648V8.81818H104.175ZM117.595 35.3835C115.575 35.3835 113.836 34.9744 112.379 34.1562C110.93 33.3295 109.814 32.1619 109.029 30.6534C108.245 29.1364 107.853 27.3423 107.853 25.2713C107.853 23.2514 108.245 21.4787 109.029 19.9531C109.814 18.4276 110.917 17.2386 112.341 16.3864C113.772 15.5341 115.451 15.108 117.377 15.108C118.673 15.108 119.879 15.3168 120.995 15.7344C122.12 16.1435 123.1 16.7614 123.936 17.5881C124.779 18.4148 125.436 19.4545 125.904 20.7074C126.373 21.9517 126.608 23.4091 126.608 25.0795V26.5753H110.027V23.2003H121.481C121.481 22.4162 121.311 21.7216 120.97 21.1165C120.629 20.5114 120.156 20.0384 119.551 19.6974C118.954 19.348 118.26 19.1733 117.467 19.1733C116.64 19.1733 115.907 19.3651 115.268 19.7486C114.637 20.1236 114.143 20.6307 113.785 21.2699C113.427 21.9006 113.244 22.6037 113.235 23.3793V26.5881C113.235 27.5597 113.414 28.3991 113.772 29.1065C114.139 29.8139 114.654 30.3594 115.319 30.7429C115.984 31.1264 116.772 31.3182 117.684 31.3182C118.289 31.3182 118.843 31.233 119.346 31.0625C119.849 30.892 120.279 30.6364 120.637 30.2955C120.995 29.9545 121.268 29.5369 121.456 29.0426L126.493 29.375C126.237 30.5852 125.713 31.642 124.92 32.5455C124.136 33.4403 123.122 34.1392 121.877 34.642C120.642 35.1364 119.214 35.3835 117.595 35.3835ZM133.895 35L128.551 15.3636H134.061L137.103 28.5568H137.282L140.453 15.3636H145.86L149.082 28.4801H149.248L152.24 15.3636H157.737L152.406 35H146.64L143.265 22.6506H143.022L139.647 35H133.895ZM176.98 20.9631L171.994 21.2699C171.909 20.8437 171.726 20.4602 171.445 20.1193C171.163 19.7699 170.793 19.4929 170.332 19.2884C169.881 19.0753 169.339 18.9688 168.709 18.9688C167.865 18.9688 167.153 19.1477 166.574 19.5057C165.994 19.8551 165.705 20.3239 165.705 20.9119C165.705 21.3807 165.892 21.777 166.267 22.1009C166.642 22.4247 167.286 22.6847 168.197 22.8807L171.751 23.5966C173.661 23.9886 175.084 24.6193 176.021 25.4886C176.959 26.358 177.428 27.5 177.428 28.9148C177.428 30.2017 177.048 31.331 176.29 32.3026C175.54 33.2741 174.509 34.0327 173.196 34.5781C171.892 35.1151 170.388 35.3835 168.683 35.3835C166.084 35.3835 164.013 34.8423 162.47 33.7599C160.936 32.669 160.037 31.1861 159.773 29.3111L165.129 29.0298C165.291 29.8224 165.683 30.4276 166.305 30.8452C166.928 31.2543 167.724 31.4588 168.696 31.4588C169.651 31.4588 170.418 31.2756 170.997 30.9091C171.585 30.5341 171.884 30.0526 171.892 29.4645C171.884 28.9702 171.675 28.5653 171.266 28.25C170.857 27.9261 170.226 27.679 169.374 27.5085L165.973 26.831C164.055 26.4474 162.628 25.7827 161.69 24.8366C160.761 23.8906 160.297 22.6847 160.297 21.2188C160.297 19.9574 160.638 18.8707 161.32 17.9588C162.01 17.0469 162.977 16.3438 164.222 15.8494C165.474 15.3551 166.94 15.108 168.619 15.108C171.099 15.108 173.051 15.6321 174.474 16.6804C175.906 17.7287 176.741 19.1562 176.98 20.9631Z" fill="#075FC5"/>
<g clip-path="url(#clip0_190_307)">
<mask id="path-3-inside-1_190_307" fill="white">
<path d="M65.5625 26.0776C65.667 27.3894 66.7038 28.411 68.5628 28.532V29.5H69.3877V28.5251C71.3127 28.3904 72.4375 27.3619 72.4375 25.8686C72.4375 24.5115 71.5768 23.8116 70.0381 23.4486L69.3877 23.2946V20.6588C70.2127 20.7523 70.738 21.2033 70.8645 21.8275H72.311C72.2065 20.5639 71.123 19.5753 69.3877 19.468V18.5H68.5628V19.4886C66.9196 19.6495 65.799 20.6381 65.799 22.0365C65.799 23.274 66.6322 24.0605 68.0169 24.3836L68.5628 24.5184V27.3151C67.7171 27.1873 67.1575 26.7239 67.031 26.0776H65.5625ZM68.5559 23.0994C67.7446 22.911 67.3046 22.5274 67.3046 21.9499C67.3046 21.3036 67.779 20.8196 68.5628 20.678V23.098L68.5559 23.0994ZM69.5074 24.7397C70.4933 24.968 70.9484 25.3379 70.9484 25.991C70.9484 26.7362 70.3819 27.2478 69.3877 27.3413V24.7122L69.5074 24.7397Z"/>
</mask>
<path d="M65.5625 26.0776C65.667 27.3894 66.7038 28.411 68.5628 28.532V29.5H69.3877V28.5251C71.3127 28.3904 72.4375 27.3619 72.4375 25.8686C72.4375 24.5115 71.5768 23.8116 70.0381 23.4486L69.3877 23.2946V20.6588C70.2127 20.7523 70.738 21.2033 70.8645 21.8275H72.311C72.2065 20.5639 71.123 19.5753 69.3877 19.468V18.5H68.5628V19.4886C66.9196 19.6495 65.799 20.6381 65.799 22.0365C65.799 23.274 66.6322 24.0605 68.0169 24.3836L68.5628 24.5184V27.3151C67.7171 27.1873 67.1575 26.7239 67.031 26.0776H65.5625ZM68.5559 23.0994C67.7446 22.911 67.3046 22.5274 67.3046 21.9499C67.3046 21.3036 67.779 20.8196 68.5628 20.678V23.098L68.5559 23.0994ZM69.5074 24.7397C70.4933 24.968 70.9484 25.3379 70.9484 25.991C70.9484 26.7362 70.3819 27.2478 69.3877 27.3413V24.7122L69.5074 24.7397Z" fill="#075FC5"/>
<path d="M65.5625 26.0776V16.0776H54.7342L55.5941 26.8718L65.5625 26.0776ZM68.5628 28.532H78.5627V19.1617L69.2123 18.5531L68.5628 28.532ZM68.5628 29.5H58.5628V39.5H68.5628V29.5ZM69.3877 29.5V39.5H79.3877V29.5H69.3877ZM69.3877 28.5251L68.6895 18.5495L59.3877 19.2007V28.5251H69.3877ZM70.0381 23.4486L67.734 33.1796L67.7419 33.1814L70.0381 23.4486ZM69.3877 23.2946H59.3877V31.2033L67.0836 33.0255L69.3877 23.2946ZM69.3877 20.6588L70.5139 10.7224L59.3877 9.4614V20.6588H69.3877ZM70.8645 21.8275L61.0637 23.8136L62.6877 31.8275H70.8645V21.8275ZM72.311 21.8275V31.8275H83.1721L82.277 21.0033L72.311 21.8275ZM69.3877 19.468H59.3877V28.869L68.7709 29.449L69.3877 19.468ZM69.3877 18.5H79.3877V8.5H69.3877V18.5ZM68.5628 18.5V8.5H58.5628V18.5H68.5628ZM68.5628 19.4886L69.5372 29.441L78.5627 28.5574V19.4886H68.5628ZM68.0169 24.3836L70.4134 14.675L70.3516 14.6598L70.2895 14.6453L68.0169 24.3836ZM68.5628 24.5184H78.5627V16.6867L70.9593 14.8098L68.5628 24.5184ZM68.5628 27.3151L67.0676 37.2027L78.5627 38.941V27.3151H68.5628ZM67.031 26.0776L76.8448 24.1566L75.2633 16.0776H67.031V26.0776ZM68.5559 23.0994L66.294 32.8402L68.3984 33.3289L70.5169 32.9052L68.5559 23.0994ZM68.5628 20.678H78.5627V8.70903L66.7845 10.8374L68.5628 20.678ZM68.5628 23.098L70.5237 32.9038L78.5627 31.2962V23.098H68.5628ZM69.5074 24.7397L71.7629 14.9974L71.7554 14.9957L71.7478 14.994L69.5074 24.7397ZM69.3877 27.3413H59.3877V38.3259L70.3241 37.2973L69.3877 27.3413ZM69.3877 24.7122L71.6282 14.9665L59.3877 12.1525V24.7122H69.3877ZM55.5941 26.8718C55.8482 30.0611 57.3087 33.1155 59.8798 35.3293C62.3698 37.4733 65.3109 38.3415 67.9132 38.5109L69.2123 18.5531C69.9556 18.6015 71.4489 18.8984 72.9296 20.1734C74.4915 21.5182 75.3813 23.4059 75.5309 25.2835L55.5941 26.8718ZM58.5628 28.532V29.5H78.5627V28.532H58.5628ZM68.5628 39.5H69.3877V19.5H68.5628V39.5ZM79.3877 29.5V28.5251H59.3877V29.5H79.3877ZM70.086 38.5007C72.5943 38.3251 75.6559 37.4952 78.2523 35.2033C81.0319 32.7496 82.4375 29.3373 82.4375 25.8686H62.4375C62.4375 23.8932 63.2807 21.7418 65.0167 20.2094C66.5695 18.8387 68.1062 18.5904 68.6895 18.5495L70.086 38.5007ZM82.4375 25.8686C82.4375 22.8127 81.3475 19.5671 78.7288 17.0611C76.4769 14.9061 73.8935 14.0837 72.3343 13.7158L67.7419 33.1814C67.7214 33.1766 66.3376 32.8856 64.9008 31.5106C64.1176 30.761 63.4415 29.8025 62.9928 28.6794C62.5551 27.584 62.4375 26.5942 62.4375 25.8686H82.4375ZM72.3423 13.7177L71.6919 13.5637L67.0836 33.0255L67.734 33.1796L72.3423 13.7177ZM79.3877 23.2946V20.6588H59.3877V23.2946H79.3877ZM68.2616 30.5951C67.1402 30.468 65.5855 30.0216 64.0982 28.8183C62.5494 27.5652 61.4644 25.7911 61.0637 23.8136L80.6653 19.8414C79.4843 14.0134 74.597 11.1851 70.5139 10.7224L68.2616 30.5951ZM70.8645 31.8275H72.311V11.8275H70.8645V31.8275ZM82.277 21.0033C81.6537 13.4669 75.2473 9.81108 70.0046 9.48705L68.7709 29.449C67.9034 29.3953 66.4627 29.0693 65.0487 27.8877C63.5683 26.6506 62.5209 24.7785 62.345 22.6517L82.277 21.0033ZM79.3877 19.468V18.5H59.3877V19.468H79.3877ZM69.3877 8.5H68.5628V28.5H69.3877V8.5ZM58.5628 18.5V19.4886H78.5627V18.5H58.5628ZM67.5883 9.53621C62.6252 10.0221 55.799 13.8645 55.799 22.0365H75.799C75.799 24.2251 74.8383 26.2896 73.2969 27.6929C71.8853 28.9781 70.4122 29.3554 69.5372 29.441L67.5883 9.53621ZM55.799 22.0365C55.799 25.1125 56.9234 28.1663 59.2239 30.5291C61.3347 32.6969 63.8342 33.6762 65.7443 34.122L70.2895 14.6453C70.8149 14.7679 72.2055 15.1924 73.5535 16.5768C75.0912 18.1562 75.799 20.198 75.799 22.0365H55.799ZM65.6203 34.0922L66.1662 34.227L70.9593 14.8098L70.4134 14.675L65.6203 34.0922ZM58.5628 24.5184V27.3151H78.5627V24.5184H58.5628ZM70.0579 17.4275C71.0419 17.5763 72.4553 18.009 73.8368 19.1326C75.2927 20.3167 76.4351 22.0637 76.8448 24.1566L57.2172 27.9986C58.3943 34.0116 63.4245 36.6518 67.0676 37.2027L70.0579 17.4275ZM67.031 16.0776H65.5625V36.0776H67.031V16.0776ZM70.8177 13.3585C71.32 13.4752 72.8225 13.8839 74.3423 15.2616C76.1701 16.9186 77.3046 19.3471 77.3046 21.9499H57.3046C57.3046 25.1302 58.6591 28.0392 60.9098 30.0795C62.8524 31.8405 64.9805 32.5352 66.294 32.8402L70.8177 13.3585ZM77.3046 21.9499C77.3046 24.2474 76.3938 26.4904 74.7581 28.1482C73.2294 29.6975 71.515 30.3065 70.341 30.5186L66.7845 10.8374C62.723 11.5713 57.3046 15.1027 57.3046 21.9499H77.3046ZM58.5628 20.678V23.098H78.5627V20.678H58.5628ZM66.6018 13.2922L66.5949 13.2935L70.5169 32.9052L70.5237 32.9038L66.6018 13.2922ZM67.2518 34.4821C67.1787 34.4651 65.6785 34.157 64.0992 32.8068C63.2048 32.0421 62.3366 30.9863 61.7304 29.6284C61.1317 28.2872 60.9484 27.01 60.9484 25.991H80.9484C80.9484 22.917 79.6857 19.8194 77.096 17.6053C75.0426 15.8498 72.8219 15.2426 71.7629 14.9974L67.2518 34.4821ZM60.9484 25.991C60.9484 23.5858 61.9732 21.1201 63.9548 19.3857C65.7181 17.8423 67.5399 17.4709 68.4514 17.3852L70.3241 37.2973C72.2297 37.1181 74.8318 36.4442 77.1269 34.4354C79.6403 32.2356 80.9484 29.1415 80.9484 25.991H60.9484ZM79.3877 27.3413V24.7122H59.3877V27.3413H79.3877ZM67.1473 34.458L67.2669 34.4855L71.7478 14.994L71.6282 14.9665L67.1473 34.458Z" fill="#075FC5" mask="url(#path-3-inside-1_190_307)"/>
<path d="M69 33.625C66.4473 33.625 63.9991 32.6109 62.1941 30.8059C60.3891 29.0009 59.375 26.5527 59.375 24C59.375 21.4473 60.3891 18.9991 62.1941 17.1941C63.9991 15.3891 66.4473 14.375 69 14.375C71.5527 14.375 74.0009 15.3891 75.8059 17.1941C77.6109 18.9991 78.625 21.4473 78.625 24C78.625 26.5527 77.6109 29.0009 75.8059 30.8059C74.0009 32.6109 71.5527 33.625 69 33.625ZM69 35C71.9174 35 74.7153 33.8411 76.7782 31.7782C78.8411 29.7153 80 26.9174 80 24C80 21.0826 78.8411 18.2847 76.7782 16.2218C74.7153 14.1589 71.9174 13 69 13C66.0826 13 63.2847 14.1589 61.2218 16.2218C59.1589 18.2847 58 21.0826 58 24C58 26.9174 59.1589 29.7153 61.2218 31.7782C63.2847 33.8411 66.0826 35 69 35Z" fill="#075FC5"/>
<path d="M69 30.4323C67.294 30.4323 65.658 29.7546 64.4517 28.5483C63.2454 27.342 62.5677 25.7059 62.5677 24C62.5677 22.2941 63.2454 20.658 64.4517 19.4517C65.658 18.2454 67.2941 17.5677 69 17.5677C70.7059 17.5677 72.342 18.2454 73.5483 19.4517C74.7546 20.658 75.4323 22.294 75.4323 24C75.4323 25.706 74.7546 27.342 73.5483 28.5483C72.342 29.7546 70.706 30.4323 69 30.4323ZM74.701 18.299L74.3475 18.6525L74.701 18.299C73.9524 17.5503 73.0636 16.9564 72.0854 16.5512C71.1072 16.146 70.0588 15.9375 69 15.9375C66.8617 15.9375 64.811 16.7869 63.299 18.299C61.7869 19.811 60.9375 21.8617 60.9375 24C60.9375 26.1383 61.7869 28.189 63.299 29.701C64.811 31.2131 66.8617 32.0625 69 32.0625C70.0588 32.0625 71.1072 31.854 72.0854 31.4488C73.0636 31.0436 73.9524 30.4497 74.701 29.701C75.4497 28.9524 76.0436 28.0636 76.4488 27.0854C76.854 26.1072 77.0625 25.0588 77.0625 24C77.0625 22.9412 76.854 21.8928 76.4488 20.9146C76.0436 19.9364 75.4497 19.0476 74.701 18.299Z" fill="#075FC5" stroke="#075FC5"/>
</g>
<defs>
<clipPath id="clip0_190_307">
<rect width="22" height="22" fill="white" transform="translate(58 13)"/>
</clipPath>
</defs>
</svg>
